<?xml version="1.0" encoding="UTF-8" standalone="no" ?>
<!DOCTYPE svg PUBLIC "-//W3C//DTD SVG 1.1//EN" "http://www.w3.org/Graphics/SVG/1.1/DTD/svg11.dtd">
<svg xmlns="http://www.w3.org/2000/svg" xmlns:xlink="http://www.w3.org/1999/xlink" version="1.1" width="1280" height="1024" viewBox="0 0 1280 1024" xml:space="preserve">
<desc>Created with Fabric.js 4.4.0</desc>
<defs>
</defs>
<g transform="matrix(1 0 0 1 640 512)" id="background-logo"  >
<rect style="stroke: none; stroke-width: 0; stroke-dasharray: none; stroke-linecap: butt; stroke-dashoffset: 0; stroke-linejoin: miter; stroke-miterlimit: 4; fill: rgb(255,255,255); fill-rule: nonzero; opacity: 1;"  paint-order="stroke"  x="-640" y="-512" rx="0" ry="0" width="1280" height="1024" />
</g>
<g transform="matrix(1.9211538461538462 0 0 1.9211538461538462 640 425.6114749999999)" id="logo-logo"  >
<g style=""  paint-order="stroke"   >
		<g transform="matrix(1.625 0 0 -1.625 0 0)"  >
<path style="stroke: rgb(0,0,0); stroke-width: 8; stroke-dasharray: none; stroke-linecap: butt; stroke-dashoffset: 0; stroke-linejoin: miter; stroke-miterlimit: 10; fill: none; fill-rule: nonzero; opacity: 1;"  paint-order="stroke"  transform=" translate(78.859, -0.0004999999999881766)" d="M 0 0 C 0 -43.552 -35.309 -78.858 -78.859 -78.858 C -122.413 -78.858 -157.718 -43.55200000000001 -157.718 0 C -157.718 43.553 -122.41299999999998 78.859 -78.859 78.859 C -35.309 78.859 0 43.553 0 0 Z" stroke-linecap="round" />
</g>
		<g transform="matrix(1.625 0 0 -1.625 61.25300000000004 57.61099999999999)"  >
<path style="stroke: none; stroke-width: 1; stroke-dasharray: none; stroke-linecap: butt; stroke-dashoffset: 0; stroke-linejoin: miter; stroke-miterlimit: 4; fill: rgb(0,148,68); fill-rule: nonzero; opacity: 0.7;"  paint-order="stroke"  transform=" translate(11.213, 0.0005000000000006111)" d="M 0 0 C 0 -6.193 -5.021 -11.213 -11.213 -11.213 C -17.405 -11.213 -22.426 -6.193 -22.426 0 C -22.426 6.191 -17.404999999999998 11.212 -11.213 11.212 C -5.021 11.212 0 6.191 0 0" stroke-linecap="round" />
</g>
		<g transform="matrix(1.625 0 0 -1.625 31.712999999999965 35.95700000000002)"  >
<path style="stroke: none; stroke-width: 1; stroke-dasharray: none; stroke-linecap: butt; stroke-dashoffset: 0; stroke-linejoin: miter; stroke-miterlimit: 4; fill: rgb(255,242,0); fill-rule: nonzero; opacity: 0.7;"  paint-order="stroke"  transform=" translate(11.436, 0)" d="M 0 0 C 0 -6.315 -5.12 -11.436 -11.436 -11.436 C -17.751 -11.436 -22.872 -6.3149999999999995 -22.872 0 C -22.872 6.315 -17.750999999999998 11.436 -11.436 11.436 C -5.12 11.436 0 6.315 0 0" stroke-linecap="round" />
</g>
		<g transform="matrix(1.625 0 0 -1.625 -12.97399999999999 75.82500000000005)"  >
<path style="stroke: none; stroke-width: 1; stroke-dasharray: none; stroke-linecap: butt; stroke-dashoffset: 0; stroke-linejoin: miter; stroke-miterlimit: 4; fill: rgb(145,38,143); fill-rule: nonzero; opacity: 0.7;"  paint-order="stroke"  transform=" translate(18.1045, 0)" d="M 0 0 C 0 -10 -8.105 -18.104 -18.105 -18.104 C -28.104 -18.104 -36.209 -10 -36.209 0 C -36.209 9.999 -28.104000000000003 18.104 -18.105000000000004 18.104 C -8.105 18.104 0 9.999 0 0" stroke-linecap="round" />
</g>
		<g transform="matrix(1.625 0 0 -1.625 69.40199999999999 20.47800000000001)"  >
<path style="stroke: none; stroke-width: 1; stroke-dasharray: none; stroke-linecap: butt; stroke-dashoffset: 0; stroke-linejoin: miter; stroke-miterlimit: 4; fill: rgb(237,28,36); fill-rule: nonzero; opacity: 0.7;"  paint-order="stroke"  transform=" translate(18.818, 0.0010000000000012221)" d="M 0 0 C 0 -10.394 -8.424 -18.818 -18.818 -18.818 C -29.21 -18.818 -37.636 -10.394000000000002 -37.636 0 C -37.636 10.391 -29.21 18.816 -18.818 18.816 C -8.424 18.816 0 10.391 0 0" stroke-linecap="round" />
</g>
		<g transform="matrix(1.625 0 0 -1.625 21.989000000000033 69.25800000000004)"  >
<path style="stroke: none; stroke-width: 1; stroke-dasharray: none; stroke-linecap: butt; stroke-dashoffset: 0; stroke-linejoin: miter; stroke-miterlimit: 4; fill: rgb(27,117,188); fill-rule: nonzero; opacity: 0.7;"  paint-order="stroke"  transform=" translate(20.5, 0.0005000000000023874)" d="M 0 0 C 0 -11.322 -9.179 -20.5 -20.5 -20.5 C -31.822 -20.5 -41 -11.322 -41 0 C -41 11.321 -31.822 20.499 -20.5 20.499 C -9.179 20.499 0 11.321 0 0" stroke-linecap="round" />
</g>
		<g transform="matrix(1.625 0 0 -1.625 -51.584 57.610000000000014)"  >
<path style="stroke: none; stroke-width: 1; stroke-dasharray: none; stroke-linecap: butt; stroke-dashoffset: 0; stroke-linejoin: miter; stroke-miterlimit: 4; fill: rgb(241,90,41); fill-rule: nonzero; opacity: 0.7;"  paint-order="stroke"  transform=" translate(18.817500000000003, 0)" d="M 0 0 C 0 -10.393 -8.424 -18.817 -18.818 -18.817 C -29.21 -18.817 -37.635000000000005 -10.393 -37.635000000000005 0 C -37.635000000000005 10.393 -29.210000000000004 18.817 -18.818000000000005 18.817 C -8.424 18.817 0 10.393 0 0" stroke-linecap="round" />
</g>
		<g transform="matrix(1.625 0 0 -1.625 -42.38499999999999 20.479000000000042)"  >
<path style="stroke: none; stroke-width: 1; stroke-dasharray: none; stroke-linecap: butt; stroke-dashoffset: 0; stroke-linejoin: miter; stroke-miterlimit: 4; fill: rgb(255,242,0); fill-rule: nonzero; opacity: 0.7;"  paint-order="stroke"  transform=" translate(15.888, 0.0015000000000000568)" d="M 0 0 C 0 -8.775 -7.113 -15.89 -15.889 -15.89 C -24.662999999999997 -15.89 -31.776 -8.775 -31.776 0 C -31.776 8.774 -24.663 15.887 -15.889 15.887 C -7.113 15.887 0 8.774 0 0" stroke-linecap="round" />
</g>
		<g transform="matrix(1.625 0 0 -1.625 -62.129999999999995 -13.288999999999987)"  >
<path style="stroke: none; stroke-width: 1; stroke-dasharray: none; stroke-linecap: butt; stroke-dashoffset: 0; stroke-linejoin: miter; stroke-miterlimit: 4; fill: rgb(145,38,143); fill-rule: nonzero; opacity: 0.7;"  paint-order="stroke"  transform=" translate(18.104, 0.0004999999999988347)" d="M 0 0 C 0 -10 -8.106 -18.105 -18.105 -18.105 C -28.103 -18.105 -36.208 -10 -36.208 0 C -36.208 9.999 -28.102999999999998 18.104 -18.104999999999997 18.104 C -8.106 18.104 0 9.999 0 0" stroke-linecap="round" />
</g>
		<g transform="matrix(1.625 0 0 -1.625 -71.16499999999999 28.680000000000035)"  >
<path style="stroke: none; stroke-width: 1; stroke-dasharray: none; stroke-linecap: butt; stroke-dashoffset: 0; stroke-linejoin: miter; stroke-miterlimit: 4; fill: rgb(27,117,188); fill-rule: nonzero; opacity: 0.7;"  paint-order="stroke"  transform=" translate(12.543, 0)" d="M 0 0 C 0 -6.928 -5.616 -12.543 -12.543 -12.543 C -19.471 -12.543 -25.086 -6.927999999999999 -25.086 0 C -25.086 6.928 -19.470999999999997 12.543 -12.543 12.543 C -5.616 12.543 0 6.928 0 0" stroke-linecap="round" />
</g>
		<g transform="matrix(1.625 0 0 -1.625 -76.17399999999998 -5.593999999999966)"  >
<path style="stroke: none; stroke-width: 1; stroke-dasharray: none; stroke-linecap: butt; stroke-dashoffset: 0; stroke-linejoin: miter; stroke-miterlimit: 4; fill: rgb(0,148,68); fill-rule: nonzero; opacity: 0.7;"  paint-order="stroke"  transform=" translate(16.137, 0.0015000000000000568)" d="M 0 0 C 0 -8.913 -7.226 -16.138 -16.138 -16.138 C -25.049 -16.138 -32.274 -8.913000000000002 -32.274 0 C -32.274 8.911 -25.049 16.135 -16.138 16.135 C -7.226 16.135 0 8.911 0 0" stroke-linecap="round" />
</g>
		<g transform="matrix(1.625 0 0 -1.625 -16.10899999999998 -83.12999999999997)"  >
<path style="stroke: none; stroke-width: 1; stroke-dasharray: none; stroke-linecap: butt; stroke-dashoffset: 0; stroke-linejoin: miter; stroke-miterlimit: 4; fill: rgb(255,242,0); fill-rule: nonzero; opacity: 0.7;"  paint-order="stroke"  transform=" translate(14.455, 0)" d="M 0 0 C 0 -7.983 -6.471 -14.455 -14.455 -14.455 C -22.438 -14.455 -28.91 -7.983 -28.91 0 C -28.91 7.982 -22.438 14.455 -14.455 14.455 C -6.471 14.455 0 7.982 0 0" stroke-linecap="round" />
</g>
		<g transform="matrix(1.625 0 0 -1.625 -57.18900000000002 -62.37799999999996)"  >
<path style="stroke: none; stroke-width: 1; stroke-dasharray: none; stroke-linecap: butt; stroke-dashoffset: 0; stroke-linejoin: miter; stroke-miterlimit: 4; fill: rgb(237,28,36); fill-rule: nonzero; opacity: 0.7;"  paint-order="stroke"  transform=" translate(18.817500000000003, 0.0015000000000000568)" d="M 0 0 C 0 -10.394 -8.425 -18.819 -18.818 -18.819 C -29.21 -18.819 -37.635000000000005 -10.393999999999998 -37.635000000000005 0 C -37.635000000000005 10.392 -29.210000000000004 18.816 -18.818000000000005 18.816 C -8.425 18.816 0 10.392 0 0" stroke-linecap="round" />
</g>
		<g transform="matrix(1.625 0 0 -1.625 -30.562999999999988 -46.355999999999995)"  >
<path style="stroke: none; stroke-width: 1; stroke-dasharray: none; stroke-linecap: butt; stroke-dashoffset: 0; stroke-linejoin: miter; stroke-miterlimit: 4; fill: rgb(27,117,188); fill-rule: nonzero; opacity: 0.7;"  paint-order="stroke"  transform=" translate(14.8925, 0.0005000000000006111)" d="M 0 0 C 0 -8.225 -6.668 -14.893 -14.893 -14.893 C -23.118000000000002 -14.893 -29.785 -8.225000000000001 -29.785 0 C -29.785 8.225 -23.118000000000002 14.892 -14.893 14.892 C -6.668 14.892 0 8.225 0 0" stroke-linecap="round" />
</g>
		<g transform="matrix(1.625 0 0 -1.625 23.040999999999997 -70.54899999999998)"  >
<path style="stroke: none; stroke-width: 1; stroke-dasharray: none; stroke-linecap: butt; stroke-dashoffset: 0; stroke-linejoin: miter; stroke-miterlimit: 4; fill: rgb(145,38,143); fill-rule: nonzero; opacity: 0.7;"  paint-order="stroke"  transform=" translate(18.1045, 0.0004999999999988347)" d="M 0 0 C 0 -10 -8.105 -18.105 -18.105 -18.105 C -28.104 -18.105 -36.209 -10 -36.209 0 C -36.209 9.999 -28.104000000000003 18.104 -18.105000000000004 18.104 C -8.105 18.104 0 9.999 0 0" stroke-linecap="round" />
</g>
		<g transform="matrix(1.625 0 0 -1.625 61.252999999999986 -52.559999999999974)"  >
<path style="stroke: none; stroke-width: 1; stroke-dasharray: none; stroke-linecap: butt; stroke-dashoffset: 0; stroke-linejoin: miter; stroke-miterlimit: 4; fill: rgb(241,90,41); fill-rule: nonzero; opacity: 0.7;"  paint-order="stroke"  transform=" translate(18.817500000000003, 0.0004999999999988347)" d="M 0 0 C 0 -10.393 -8.424 -18.818 -18.817 -18.818 C -29.209 -18.818 -37.635000000000005 -10.393 -37.635000000000005 0 C -37.635000000000005 10.392 -29.209000000000003 18.817 -18.817000000000004 18.817 C -8.424 18.817 0 10.392 0 0" stroke-linecap="round" />
</g>
		<g transform="matrix(1.625 0 0 -1.625 30.68399999999997 -36.79299999999998)"  >
<path style="stroke: none; stroke-width: 1; stroke-dasharray: none; stroke-linecap: butt; stroke-dashoffset: 0; stroke-linejoin: miter; stroke-miterlimit: 4; fill: rgb(255,242,0); fill-rule: nonzero; opacity: 0.7;"  paint-order="stroke"  transform=" translate(11.435500000000001, 0.0004999999999988347)" d="M 0 0 C 0 -6.316 -5.119 -11.436 -11.436 -11.436 C -17.751 -11.436 -22.871000000000002 -6.316 -22.871000000000002 0 C -22.871000000000002 6.315 -17.751 11.435 -11.436000000000002 11.435 C -5.119 11.435 0 6.315 0 0" stroke-linecap="round" />
</g>
		<g transform="matrix(1.625 0 0 -1.625 30.829999999999984 -7.943999999999988)"  >
<path style="stroke: none; stroke-width: 1; stroke-dasharray: none; stroke-linecap: butt; stroke-dashoffset: 0; stroke-linejoin: miter; stroke-miterlimit: 4; fill: rgb(145,38,143); fill-rule: nonzero; opacity: 0.7;"  paint-order="stroke"  transform=" translate(10.8925, 0.0005000000000006111)" d="M 0 0 C 0 -6.017 -4.877 -10.893 -10.893 -10.893 C -16.908 -10.893 -21.785 -6.017 -21.785 0 C -21.785 6.016 -16.908 10.892 -10.893 10.892 C -4.877 10.892 0 6.016 0 0" stroke-linecap="round" />
</g>
		<g transform="matrix(1.625 0 0 -1.625 79.47000000000003 -23.355999999999966)"  >
<path style="stroke: none; stroke-width: 1; stroke-dasharray: none; stroke-linecap: butt; stroke-dashoffset: 0; stroke-linejoin: miter; stroke-miterlimit: 4; fill: rgb(0,148,68); fill-rule: nonzero; opacity: 0.7;"  paint-order="stroke"  transform=" translate(14.376999999999999, 0.0015000000000000568)" d="M 0 0 C 0 -7.941 -6.437 -14.378 -14.379 -14.378 C -22.317 -14.378 -28.753999999999998 -7.941 -28.753999999999998 0 C -28.753999999999998 7.939 -22.316999999999997 14.375 -14.378999999999998 14.375 C -6.437 14.375 0 7.939 0 0" stroke-linecap="round" />
</g>
		<g transform="matrix(1.625 0 0 -1.625 -6.3700000000000045 -52.559999999999974)"  >
<path style="stroke: none; stroke-width: 1; stroke-dasharray: none; stroke-linecap: butt; stroke-dashoffset: 0; stroke-linejoin: miter; stroke-miterlimit: 4; fill: rgb(0,148,68); fill-rule: nonzero; opacity: 0.7;"  paint-order="stroke"  transform=" translate(11.213000000000001, 0.0005000000000006111)" d="M 0 0 C 0 -6.193 -5.021 -11.213 -11.214 -11.213 C -17.406 -11.213 -22.426000000000002 -6.193 -22.426000000000002 0 C -22.426000000000002 6.192 -17.406000000000002 11.212 -11.214000000000002 11.212 C -5.021 11.212 0 6.192 0 0" stroke-linecap="round" />
</g>
		<g transform="matrix(1.625 0 0 -1.625 56.113999999999976 -10.091999999999985)"  >
<path style="stroke: none; stroke-width: 1; stroke-dasharray: none; stroke-linecap: butt; stroke-dashoffset: 0; stroke-linejoin: miter; stroke-miterlimit: 4; fill: rgb(27,117,188); fill-rule: nonzero; opacity: 0.7;"  paint-order="stroke"  transform=" translate(16.4335, 0)" d="M 0 0 C 0 -9.077 -7.357 -16.434 -16.435 -16.434 C -25.509999999999998 -16.434 -32.867 -9.077000000000002 -32.867 0 C -32.867 9.077 -25.509999999999998 16.434 -16.435 16.434 C -7.357 16.434 0 9.077 0 0" stroke-linecap="round" />
</g>
		<g transform="matrix(1.625 0 0 -1.625 -17.975000000000023 39.65300000000002)"  >
<path style="stroke: none; stroke-width: 1; stroke-dasharray: none; stroke-linecap: butt; stroke-dashoffset: 0; stroke-linejoin: miter; stroke-miterlimit: 4; fill: rgb(0,148,68); fill-rule: nonzero; opacity: 0.7;"  paint-order="stroke"  transform=" translate(13.3065, 0.0010000000000012221)" d="M 0 0 C 0 -7.35 -5.958 -13.308 -13.308 -13.308 C -20.656 -13.308 -26.613 -7.35 -26.613 0 C -26.613 7.349 -20.656 13.306 -13.308 13.306 C -5.958 13.306 0 7.349 0 0" stroke-linecap="round" />
</g>
		<g transform="matrix(1.625 0 0 -1.625 -12.974999999999966 -21.98999999999998)"  >
<path style="stroke: none; stroke-width: 1; stroke-dasharray: none; stroke-linecap: butt; stroke-dashoffset: 0; stroke-linejoin: miter; stroke-miterlimit: 4; fill: rgb(255,242,0); fill-rule: nonzero; opacity: 0.7;"  paint-order="stroke"  transform=" translate(15.888, 0.0004999999999988347)" d="M 0 0 C 0 -8.774 -7.113 -15.889 -15.888 -15.889 C -24.663 -15.889 -31.776 -8.774 -31.776 0 C -31.776 8.775 -24.663 15.888 -15.888 15.888 C -7.113 15.888 0 8.775 0 0" stroke-linecap="round" />
</g>
		<g transform="matrix(1.625 0 0 -1.625 -21.01400000000001 8.303000000000026)"  >
<path style="stroke: none; stroke-width: 1; stroke-dasharray: none; stroke-linecap: butt; stroke-dashoffset: 0; stroke-linejoin: miter; stroke-miterlimit: 4; fill: rgb(145,38,143); fill-rule: nonzero; opacity: 0.7;"  paint-order="stroke"  transform=" translate(10.893, 0.0005000000000006111)" d="M 0 0 C 0 -6.016 -4.878 -10.893 -10.894 -10.893 C -16.91 -10.893 -21.786 -6.016000000000001 -21.786 0 C -21.786 6.015 -16.91 10.892 -10.894000000000002 10.892 C -4.878 10.892 0 6.015 0 0" stroke-linecap="round" />
</g>
		<g transform="matrix(1.625 0 0 -1.625 9.673000000000002 -13.287999999999982)"  >
<path style="stroke: none; stroke-width: 1; stroke-dasharray: none; stroke-linecap: butt; stroke-dashoffset: 0; stroke-linejoin: miter; stroke-miterlimit: 4; fill: rgb(27,117,188); fill-rule: nonzero; opacity: 0.7;"  paint-order="stroke"  transform=" translate(12.918, 0.0010000000000012221)" d="M 0 0 C 0 -7.136 -5.783 -12.919 -12.918 -12.919 C -20.052999999999997 -12.919 -25.836 -7.136 -25.836 0 C -25.836 7.134 -20.052999999999997 12.917 -12.918 12.917 C -5.783 12.917 0 7.134 0 0" stroke-linecap="round" />
</g>
		<g transform="matrix(1.625 0 0 -1.625 7.882000000000005 22.600000000000023)"  >
<path style="stroke: none; stroke-width: 1; stroke-dasharray: none; stroke-linecap: butt; stroke-dashoffset: 0; stroke-linejoin: miter; stroke-miterlimit: 4; fill: rgb(237,28,36); fill-rule: nonzero; opacity: 0.7;"  paint-order="stroke"  transform=" translate(13.9115, 0.0010000000000012221)" d="M 0 0 C 0 -7.684 -6.227 -13.913 -13.912 -13.913 C -21.594 -13.913 -27.823 -7.684 -27.823 0 C -27.823 7.683 -21.594 13.911 -13.912 13.911 C -6.227 13.911 0 7.683 0 0" stroke-linecap="round" />
</g>
		<g transform="matrix(1.625 0 0 -1.625 31.71199999999999 7.698000000000036)"  >
<path style="stroke: none; stroke-width: 1; stroke-dasharray: none; stroke-linecap: butt; stroke-dashoffset: 0; stroke-linejoin: miter; stroke-miterlimit: 4; fill: rgb(0,148,68); fill-rule: nonzero; opacity: 0.7;"  paint-order="stroke"  transform=" translate(8.502, 0.0005000000000006111)" d="M 0 0 C 0 -4.696 -3.807 -8.502 -8.502 -8.502 C -13.197000000000001 -8.502 -17.004 -4.696000000000001 -17.004 0 C -17.004 4.695 -13.197000000000001 8.501 -8.502 8.501 C -3.807 8.501 0 4.695 0 0" stroke-linecap="round" />
</g>
		<g transform="matrix(1.625 0 0 -1.625 7.3729999999999905 -41.13899999999998)"  >
<path style="stroke: none; stroke-width: 1; stroke-dasharray: none; stroke-linecap: butt; stroke-dashoffset: 0; stroke-linejoin: miter; stroke-miterlimit: 4; fill: rgb(237,28,36); fill-rule: nonzero; opacity: 0.7;"  paint-order="stroke"  transform=" translate(7.3185, 0)" d="M 0 0 C 0 -4.042 -3.276 -7.318 -7.318 -7.318 C -11.36 -7.318 -14.637 -4.042 -14.637 0 C -14.637 4.041 -11.36 7.318 -7.3180000000000005 7.318 C -3.276 7.318 0 4.041 0 0" stroke-linecap="round" />
</g>
		<g transform="matrix(1.625 0 0 -1.625 -91.85300000000001 19.40300000000005)"  >
<path style="stroke: none; stroke-width: 1; stroke-dasharray: none; stroke-linecap: butt; stroke-dashoffset: 0; stroke-linejoin: miter; stroke-miterlimit: 4; fill: rgb(241,90,41); fill-rule: nonzero; opacity: 0.7;"  paint-order="stroke"  transform=" translate(9.5565, 0.0015000000000000568)" d="M 0 0 C 0 -5.279 -4.278 -9.558 -9.557 -9.558 C -14.834 -9.558 -19.113 -5.279 -19.113 0 C -19.113 5.277 -14.834 9.555 -9.557 9.555 C -4.278 9.555 0 5.277 0 0" stroke-linecap="round" />
</g>
		<g transform="matrix(1.625 0 0 -1.625 -87.75799999999998 -41.13799999999998)"  >
<path style="stroke: none; stroke-width: 1; stroke-dasharray: none; stroke-linecap: butt; stroke-dashoffset: 0; stroke-linejoin: miter; stroke-miterlimit: 4; fill: rgb(27,117,188); fill-rule: nonzero; opacity: 0.7;"  paint-order="stroke"  transform=" translate(5.703, 0)" d="M 0 0 C 0 -3.149 -2.554 -5.703 -5.703 -5.703 C -8.853 -5.703 -11.406 -3.1490000000000005 -11.406 0 C -11.406 3.15 -8.853000000000002 5.703 -5.703 5.703 C -2.554 5.703 0 3.15 0 0" stroke-linecap="round" />
</g>
		<g transform="matrix(1.625 0 0 -1.625 -91.85300000000001 39.652000000000015)"  >
<path style="stroke: none; stroke-width: 1; stroke-dasharray: none; stroke-linecap: butt; stroke-dashoffset: 0; stroke-linejoin: miter; stroke-miterlimit: 4; fill: rgb(145,38,143); fill-rule: nonzero; opacity: 0.7;"  paint-order="stroke"  transform=" translate(4.8065, 0.0005000000000006111)" d="M 0 0 C 0 -2.654 -2.152 -4.807 -4.807 -4.807 C -7.461 -4.807 -9.613 -2.6540000000000004 -9.613 0 C -9.613 2.654 -7.460999999999999 4.806 -4.8069999999999995 4.806 C -2.152 4.806 0 2.654 0 0" stroke-linecap="round" />
</g>
		<g transform="matrix(1.625 0 0 -1.625 7.3729999999999905 -103.50599999999997)"  >
<path style="stroke: none; stroke-width: 1; stroke-dasharray: none; stroke-linecap: butt; stroke-dashoffset: 0; stroke-linejoin: miter; stroke-miterlimit: 4; fill: rgb(27,117,188); fill-rule: nonzero; opacity: 0.7;"  paint-order="stroke"  transform=" translate(4.9535, 0.0004999999999997229)" d="M 0 0 C 0 -2.736 -2.217 -4.954 -4.953 -4.954 C -7.688000000000001 -4.954 -9.907 -2.7359999999999998 -9.907 0 C -9.907 2.735 -7.688000000000001 4.953 -4.953 4.953 C -2.217 4.953 0 2.735 0 0" stroke-linecap="round" />
</g>
		<g transform="matrix(1.625 0 0 -1.625 48.524 -84.16599999999997)"  >
<path style="stroke: none; stroke-width: 1; stroke-dasharray: none; stroke-linecap: butt; stroke-dashoffset: 0; stroke-linejoin: miter; stroke-miterlimit: 4; fill: rgb(0,148,68); fill-rule: nonzero; opacity: 0.7;"  paint-order="stroke"  transform=" translate(6.951, 0.0005000000000006111)" d="M 0 0 C 0 -3.839 -3.111 -6.952 -6.951 -6.952 C -10.79 -6.952 -13.902 -3.839 -13.902 0 C -13.902 3.839 -10.79 6.951 -6.951 6.951 C -3.111 6.951 0 3.839 0 0" stroke-linecap="round" />
</g>
		<g transform="matrix(1.625 0 0 -1.625 -42.386000000000024 88.18000000000006)"  >
<path style="stroke: none; stroke-width: 1; stroke-dasharray: none; stroke-linecap: butt; stroke-dashoffset: 0; stroke-linejoin: miter; stroke-miterlimit: 4; fill: rgb(255,242,0); fill-rule: nonzero; opacity: 0.7;"  paint-order="stroke"  transform=" translate(4.5685, 0.0004999999999997229)" d="M 0 0 C 0 -2.524 -2.045 -4.568 -4.569 -4.568 C -7.0920000000000005 -4.568 -9.137 -2.5239999999999996 -9.137 0 C -9.137 2.521 -7.0920000000000005 4.567 -4.569000000000001 4.567 C -2.045 4.567 0 2.521 0 0" stroke-linecap="round" />
</g>
		<g transform="matrix(1.625 0 0 -1.625 93.37299999999999 -0.0009999999999763531)"  >
<path style="stroke: none; stroke-width: 1; stroke-dasharray: none; stroke-linecap: butt; stroke-dashoffset: 0; stroke-linejoin: miter; stroke-miterlimit: 4; fill: rgb(145,38,143); fill-rule: nonzero; opacity: 0.7;"  paint-order="stroke"  transform=" translate(7.984, 0)" d="M 0 0 C 0 -4.41 -3.573 -7.984 -7.983 -7.984 C -12.393999999999998 -7.984 -15.968 -4.41 -15.968 0 C -15.968 4.409 -12.394 7.984 -7.983 7.984 C -3.573 7.984 0 4.409 0 0" stroke-linecap="round" />
</g>
		<g transform="matrix(1.625 0 0 -1.625 78.375 44.59000000000003)"  >
<path style="stroke: none; stroke-width: 1; stroke-dasharray: none; stroke-linecap: butt; stroke-dashoffset: 0; stroke-linejoin: miter; stroke-miterlimit: 4; fill: rgb(27,117,188); fill-rule: nonzero; opacity: 0.7;"  paint-order="stroke"  transform=" translate(9.878499999999999, 0.0005000000000006111)" d="M 0 0 C 0 -5.458 -4.423 -9.879 -9.878 -9.879 C -15.334 -9.879 -19.756999999999998 -5.457999999999999 -19.756999999999998 0 C -19.756999999999998 5.455 -15.333999999999998 9.878 -9.877999999999998 9.878 C -4.423 9.878 0 5.455 0 0" stroke-linecap="round" />
</g>
		<g transform="matrix(1.625 0 0 -1.625 -91.85300000000001 -21.990999999999957)"  >
<path style="stroke: none; stroke-width: 1; stroke-dasharray: none; stroke-linecap: butt; stroke-dashoffset: 0; stroke-linejoin: miter; stroke-miterlimit: 4; fill: rgb(255,242,0); fill-rule: nonzero; opacity: 0.7;"  paint-order="stroke"  transform=" translate(8.7775, -0.0005000000000006111)" d="M 0 0 C 0 -4.848 -3.929 -8.777 -8.777 -8.777 C -13.625 -8.777 -17.555 -4.847999999999999 -17.555 0 C -17.555 4.848 -13.625 8.778 -8.777 8.778 C -3.929 8.778 0 4.848 0 0" stroke-linecap="round" />
</g>
		<g transform="matrix(1.625 0 0 -1.625 -39.591999999999985 -92.94899999999997)"  >
<path style="stroke: none; stroke-width: 1; stroke-dasharray: none; stroke-linecap: butt; stroke-dashoffset: 0; stroke-linejoin: miter; stroke-miterlimit: 4; fill: rgb(241,90,41); fill-rule: nonzero; opacity: 0.7;"  paint-order="stroke"  transform=" translate(6.41, -0.0004999999999997229)" d="M 0 0 C 0 -3.54 -2.87 -6.409 -6.41 -6.409 C -9.95 -6.409 -12.82 -3.5399999999999996 -12.82 0 C -12.82 3.541 -9.95 6.41 -6.41 6.41 C -2.87 6.41 0 3.541 0 0" stroke-linecap="round" />
</g>
		<g transform="matrix(1.625 0 0 -1.625 -87.75800000000001 51.047000000000025)"  >
<path style="stroke: none; stroke-width: 1; stroke-dasharray: none; stroke-linecap: butt; stroke-dashoffset: 0; stroke-linejoin: miter; stroke-miterlimit: 4; fill: rgb(0,148,68); fill-rule: nonzero; opacity: 0.7;"  paint-order="stroke"  transform=" translate(3.9595000000000002, 0)" d="M 0 0 C 0 -2.188 -1.773 -3.96 -3.96 -3.96 C -6.147 -3.96 -7.9190000000000005 -2.1879999999999997 -7.9190000000000005 0 C -7.9190000000000005 2.187 -6.147 3.96 -3.9600000000000004 3.96 C -1.773 3.96 0 2.187 0 0" stroke-linecap="round" />
</g>
		<g transform="matrix(1.625 0 0 -1.625 45.524 73.11100000000005)"  >
<path style="stroke: none; stroke-width: 1; stroke-dasharray: none; stroke-linecap: butt; stroke-dashoffset: 0; stroke-linejoin: miter; stroke-miterlimit: 4; fill: rgb(255,242,0); fill-rule: nonzero; opacity: 0.7;"  paint-order="stroke"  transform=" translate(11.435500000000001, 0.0009999999999994458)" d="M 0 0 C 0 -6.317 -5.119 -11.437 -11.436 -11.437 C -17.751 -11.437 -22.871000000000002 -6.316999999999999 -22.871000000000002 0 C -22.871000000000002 6.314 -17.751 11.435 -11.436000000000002 11.435 C -5.119 11.435 0 6.314 0 0" stroke-linecap="round" />
</g>
		<g transform="matrix(1.625 0 0 -1.625 87.63999999999999 -46.355999999999966)"  >
<path style="stroke: none; stroke-width: 1; stroke-dasharray: none; stroke-linecap: butt; stroke-dashoffset: 0; stroke-linejoin: miter; stroke-miterlimit: 4; fill: rgb(27,117,188); fill-rule: nonzero; opacity: 0.7;"  paint-order="stroke"  transform=" translate(5.702500000000001, 0)" d="M 0 0 C 0 -3.149 -2.553 -5.703 -5.702 -5.703 C -8.852 -5.703 -11.405000000000001 -3.1490000000000005 -11.405000000000001 0 C -11.405000000000001 3.15 -8.852 5.703 -5.702000000000001 5.703 C -2.553 5.703 0 3.15 0 0" stroke-linecap="round" />
</g>
		<g transform="matrix(1.625 0 0 -1.625 5.3770000000000095 91.68800000000005)"  >
<path style="stroke: none; stroke-width: 1; stroke-dasharray: none; stroke-linecap: butt; stroke-dashoffset: 0; stroke-linejoin: miter; stroke-miterlimit: 4; fill: rgb(255,242,0); fill-rule: nonzero; opacity: 0.7;"  paint-order="stroke"  transform=" translate(8.7775, 0)" d="M 0 0 C 0 -4.848 -3.93 -8.777 -8.777 -8.777 C -13.625 -8.777 -17.555 -4.847999999999999 -17.555 0 C -17.555 4.847 -13.625 8.777 -8.777 8.777 C -3.93 8.777 0 4.847 0 0" stroke-linecap="round" />
</g>
		<g transform="matrix(1.625 0 0 -1.625 -97.02299999999997 -3.3109999999999786)"  >
<path style="stroke: none; stroke-width: 1; stroke-dasharray: none; stroke-linecap: butt; stroke-dashoffset: 0; stroke-linejoin: miter; stroke-miterlimit: 4; fill: rgb(145,38,143); fill-rule: nonzero; opacity: 0.7;"  paint-order="stroke"  transform=" translate(7.984, 0)" d="M 0 0 C 0 -4.41 -3.574 -7.984 -7.983 -7.984 C -12.393999999999998 -7.984 -15.968 -4.41 -15.968 0 C -15.968 4.409 -12.394 7.984 -7.983 7.984 C -3.574 7.984 0 4.409 0 0" stroke-linecap="round" />
</g>
		<g transform="matrix(1.625 0 0 -1.625 -3.319999999999993 84.99800000000005)"  >
<path style="stroke: none; stroke-width: 1; stroke-dasharray: none; stroke-linecap: butt; stroke-dashoffset: 0; stroke-linejoin: miter; stroke-miterlimit: 4; fill: rgb(237,28,36); fill-rule: nonzero; opacity: 0.7;"  paint-order="stroke"  transform=" translate(7.3175, 0)" d="M 0 0 C 0 -4.042 -3.275 -7.318 -7.318 -7.318 C -11.359 -7.318 -14.635 -4.042 -14.635 0 C -14.635 4.042 -11.359 7.318 -7.318 7.318 C -3.275 7.318 0 4.042 0 0" stroke-linecap="round" />
</g>
</g>
</g>
<g transform="matrix(1.9211538461538462 0 0 1.9211538461538462 639.1419909292366 771.6674896140119)" id="text-logo-path-group"  >
<g style=""  paint-order="stroke"   >
		<g transform="matrix(1 0 0 1 0 0)" id="text-logo-path-0"  >
<path style="stroke: none; stroke-width: 1; stroke-dasharray: none; stroke-linecap: butt; stroke-dashoffset: 0; stroke-linejoin: miter; stroke-miterlimit: 4; fill: rgb(0,0,0); fill-rule: nonzero; opacity: 1;"  paint-order="stroke"  transform=" translate(-198.34499999999997, 27.66)" d="M 7.74 -11.97 L 1.17 -7.49 C 2.54 -5.01 4.7 -3.05 7.71 -1.62 C 10.73 -0.16 13.87 0.57 17.17 0.57 C 24.79 0.76 32.25 -5.24 32.06 -11.43 C 32.15 -21.96 13.33 -22.41 13.33 -26.66 C 13.33 -28.31 14.63 -29.52 17.3 -29.52 C 20.34 -29.52 22.66 -28.75 25.1 -26.6 L 31.14 -30.94 C 29.52 -33.1 27.29 -34.82 24.5 -36.05 C 21.68 -37.29 18.85 -37.9 16 -37.9 C 12.47 -37.9 9.01 -36.31 6.76 -34.09 C 4.51 -31.87 3.05 -28.91 3.05 -26.25 C 3.02 -22.34 6.09 -19.77 9.58 -18 C 14.31 -15.46 19.93 -14.12 20.85 -11.65 C 21.07 -11.49 21.2 -11.33 21.2 -11.17 C 21.2 -9.43 19.46 -8.19 16.12 -8.19 C 12.73 -8.19 9.93 -9.46 7.74 -11.97 Z M 35.42 -55.13 L 35.55 -18.47 C 35.55 -17.81 35.61 -15.68 35.61 -15.08 C 36.02 -5.27 41.1 -0.22 50.91 0 C 51.57 -0.73 52.21 -2.41 52.88 -5.05 C 53.23 -6.47 53.42 -7.59 53.42 -8.44 C 53.42 -9.14 53.29 -9.65 53.03 -9.93 C 49.51 -10.09 47.45 -11.36 46.88 -13.77 C 46.34 -15.27 46.08 -16.92 46.08 -18.73 L 45.89 -55.13 Z M 57.64 0 L 68.24 0 L 68.24 -37.58 L 57.64 -37.58 Z M 57.8 -49.19 C 57.8 -47.23 58.08 -45.16 58.68 -42.97 C 59.95 -42.37 61.29 -42.05 62.71 -42.05 C 64.27 -42.05 65.76 -42.37 67.16 -42.97 C 67.76 -44.34 68.05 -45.77 68.05 -47.26 C 68.05 -48.78 67.76 -50.18 67.16 -51.48 C 65.79 -52.15 64.46 -52.46 63.13 -52.46 C 61.95 -52.46 60.87 -52.15 59.89 -51.51 C 58.87 -50.88 58.18 -50.11 57.8 -49.19 Z M 73.47 -17.36 C 73.66 -14.25 74.49 -11.36 75.95 -8.73 C 77.41 -6.09 79.38 -3.94 81.85 -2.29 C 84.33 -0.6 87.06 0.32 90.01 0.51 C 90.83 0.54 92.01 0.57 93.5 0.57 C 98.2 0.35 102.17 -0.98 105.4 -3.36 C 105.56 -2.89 105.66 -1.75 105.66 0 L 112.42 0 L 112.42 -55.95 L 101.88 -55.95 L 101.94 -36.34 C 99.25 -37.42 96.55 -37.96 93.82 -37.96 C 91.85 -37.96 90.2 -37.83 88.9 -37.58 C 84.77 -36.98 81.28 -35.04 78.39 -31.8 C 75.51 -28.56 73.89 -24.79 73.54 -20.47 C 73.47 -19.87 73.44 -19.27 73.44 -18.6 C 73.44 -18.19 73.44 -17.77 73.47 -17.36 Z M 84.27 -18.66 C 84.27 -21.58 85.09 -23.96 86.77 -25.77 C 88.45 -27.58 90.58 -28.47 93.18 -28.47 C 95.5 -28.44 97.44 -27.71 99.02 -26.28 C 100.61 -24.85 101.59 -22.92 101.94 -20.47 L 101.94 -16.69 C 101.59 -14.28 100.61 -12.38 99.02 -10.98 C 97.44 -9.55 95.5 -8.85 93.18 -8.85 C 90.52 -8.85 88.36 -9.74 86.74 -11.55 C 85.09 -13.36 84.27 -15.71 84.27 -18.66 Z M 116.42 -18.66 C 116.42 -15.77 116.99 -13.11 118.1 -10.66 C 119.21 -8.19 120.67 -6.16 122.48 -4.54 C 126.13 -1.3 130.92 0.63 135.74 0.63 C 140.54 0.63 144.66 -0.67 147.36 -2.79 C 150.06 -4.92 151.77 -7.17 152.95 -9.87 L 144.25 -11.84 C 143.33 -10.54 142.06 -9.58 140.51 -8.95 C 139.27 -8.44 138.03 -8.19 136.73 -8.19 C 136.38 -8.19 136.03 -8.22 135.68 -8.25 C 133.55 -8.44 131.68 -9.24 130.1 -10.6 C 128.48 -11.97 127.52 -13.68 127.21 -15.68 L 153.61 -15.68 C 153.61 -22.66 151.99 -28.12 148.79 -32.06 C 145.58 -35.99 140.98 -37.96 135.01 -37.96 C 130.22 -37.96 125.59 -35.96 122.16 -32.66 C 118.7 -29.33 116.42 -24.25 116.42 -18.66 Z M 143.27 -22.82 L 127.4 -22.82 C 127.75 -24.85 128.6 -26.53 130 -27.83 C 131.36 -29.14 133.11 -29.77 135.21 -29.77 C 137.4 -29.77 139.24 -29.07 140.76 -27.64 C 142.25 -26.22 143.11 -24.63 143.27 -22.82 Z M 156.47 -43.48 L 170.69 -43.48 L 170.69 0 L 181.61 0 L 181.61 -43.48 L 195.79 -43.48 L 195.79 -53.51 L 156.47 -53.51 Z M 201.98 -9.24 L 201.98 -9.24 C 203.76 -6.25 206.17 -3.87 209.22 -2.06 C 212.27 -0.25 215.53 0.63 218.99 0.63 C 221.6 0.63 224.1 0.1 226.55 -0.98 C 228.99 -2.03 231.09 -3.46 232.83 -5.21 C 234.58 -6.95 235.97 -9.01 237.02 -11.39 C 238.07 -13.74 238.61 -16.15 238.61 -18.66 C 238.61 -21.14 238.07 -23.55 237.02 -25.93 C 235.97 -28.28 234.58 -30.34 232.83 -32.09 C 231.09 -33.83 228.99 -35.26 226.55 -36.34 C 224.1 -37.42 221.6 -37.96 218.99 -37.96 C 215.53 -37.96 212.3 -37.07 209.25 -35.26 C 206.2 -33.45 203.79 -31.07 201.98 -28.12 C 200.17 -25.14 199.28 -21.99 199.28 -18.66 C 199.28 -15.33 200.17 -12.19 201.98 -9.24 Z M 209.95 -18.66 C 209.95 -21.46 210.81 -23.77 212.52 -25.58 C 214.2 -27.39 216.36 -28.28 218.93 -28.28 C 221.53 -28.28 223.69 -27.39 225.41 -25.58 C 227.09 -23.77 227.94 -21.46 227.94 -18.66 C 227.94 -15.87 227.09 -13.58 225.41 -11.77 C 223.69 -9.97 221.53 -9.05 218.93 -9.05 L 218.77 -9.05 C 216.26 -9.05 214.2 -9.93 212.52 -11.74 C 210.84 -13.55 209.98 -15.87 209.95 -18.66 Z M 244.99 -9.24 L 244.99 -9.24 C 246.77 -6.25 249.18 -3.87 252.22 -2.06 C 255.27 -0.25 258.54 0.63 262 0.63 C 264.6 0.63 267.11 0.1 269.55 -0.98 C 272 -2.03 274.09 -3.46 275.84 -5.21 C 277.58 -6.95 278.98 -9.01 280.03 -11.39 C 281.07 -13.74 281.61 -16.15 281.61 -18.66 C 281.61 -21.14 281.07 -23.55 280.03 -25.93 C 278.98 -28.28 277.58 -30.34 275.84 -32.09 C 274.09 -33.83 272 -35.26 269.55 -36.34 C 267.11 -37.42 264.6 -37.96 262 -37.96 C 258.54 -37.96 255.3 -37.07 252.26 -35.26 C 249.21 -33.45 246.8 -31.07 244.99 -28.12 C 243.18 -25.14 242.29 -21.99 242.29 -18.66 C 242.29 -15.33 243.18 -12.19 244.99 -9.24 Z M 252.95 -18.66 C 252.95 -21.46 253.81 -23.77 255.52 -25.58 C 257.21 -27.39 259.37 -28.28 261.94 -28.28 C 264.54 -28.28 266.7 -27.39 268.41 -25.58 C 270.09 -23.77 270.95 -21.46 270.95 -18.66 C 270.95 -15.87 270.09 -13.58 268.41 -11.77 C 266.7 -9.97 264.54 -9.05 261.94 -9.05 L 261.78 -9.05 C 259.27 -9.05 257.21 -9.93 255.52 -11.74 C 253.84 -13.55 252.99 -15.87 252.95 -18.66 Z M 285.17 -55.13 L 285.3 -18.47 C 285.3 -17.81 285.36 -15.68 285.36 -15.08 C 285.77 -5.27 290.85 -0.22 300.66 0 C 301.32 -0.73 301.96 -2.41 302.62 -5.05 C 302.97 -6.47 303.16 -7.59 303.16 -8.44 C 303.16 -9.14 303.04 -9.65 302.78 -9.93 C 299.26 -10.09 297.2 -11.36 296.63 -13.77 C 296.09 -15.27 295.83 -16.92 295.83 -18.73 L 295.64 -55.13 Z M 307.73 0 L 318.65 0 L 318.65 -25.01 C 321.73 -21.55 329.03 -13.2 340.55 0 L 355.88 0 L 330.81 -26.98 L 353.95 -53.51 L 339.76 -53.51 C 337.44 -50.78 333.92 -46.69 329.22 -41.23 C 324.52 -35.74 321 -31.64 318.65 -28.91 L 318.65 -53.51 L 307.73 -53.51 Z M 357.82 0 L 368.42 0 L 368.42 -37.58 L 357.82 -37.58 Z M 357.98 -49.19 C 357.98 -47.23 358.26 -45.16 358.86 -42.97 C 360.13 -42.37 361.47 -42.05 362.9 -42.05 C 364.45 -42.05 365.94 -42.37 367.34 -42.97 C 367.94 -44.34 368.23 -45.77 368.23 -47.26 C 368.23 -48.78 367.94 -50.18 367.34 -51.48 C 365.97 -52.15 364.64 -52.46 363.31 -52.46 C 362.13 -52.46 361.05 -52.15 360.07 -51.51 C 359.06 -50.88 358.36 -50.11 357.98 -49.19 Z M 371.59 -27.55 L 376.8 -27.55 L 376.86 -17.04 C 376.86 -15.23 376.89 -13.87 376.92 -13.01 C 377.24 -5.11 380.7 -0.76 387.33 0 C 387.78 0.03 388.25 0.06 388.76 0.06 C 389.87 0.06 391.08 -0.03 392.38 -0.22 C 394.32 -0.51 395.36 -0.63 395.52 -0.63 L 393.87 -9.87 C 393.71 -9.87 393.33 -9.84 392.79 -9.78 C 391.65 -9.65 390.67 -9.65 389.78 -10 C 388.32 -10.44 387.52 -12.09 387.4 -14.95 C 387.37 -15.42 387.33 -16.19 387.33 -17.23 L 387.33 -27.55 L 394.54 -27.55 L 394.54 -36.47 L 387.33 -36.47 L 387.33 -47.96 L 376.8 -47.96 L 376.8 -36.47 L 371.59 -36.47 Z" stroke-linecap="round" />
</g>
</g>
</g>
</svg>